<svg width="20" height="17" viewBox="0 0 20 17" fill="none" xmlns="http://www.w3.org/2000/svg">
<path fill-rule="evenodd" clip-rule="evenodd" d="M7.83782 13.0031C3.5091 13.0031 -1.71661e-05 10.0922 -1.71661e-05 6.50153C-1.71661e-05 2.91084 3.5091 0 7.83782 0C12.1665 0 15.6757 2.91084 15.6757 6.50153C15.6757 8.05462 15.0192 9.48052 13.9238 10.5987L19.7625 15.442C20.0792 15.7046 20.0792 16.1305 19.7625 16.3931C19.4459 16.6558 18.9325 16.6558 18.6159 16.3931L12.7771 11.5499C11.4291 12.4585 9.71014 13.0031 7.83782 13.0031ZM7.83782 11.6579C11.2709 11.6579 14.054 9.34933 14.054 6.50154C14.054 3.65374 11.2709 1.34515 7.83782 1.34515C4.40469 1.34515 1.6216 3.65374 1.6216 6.50154C1.6216 9.34933 4.40469 11.6579 7.83782 11.6579Z" fill="#757575"/>
</svg>
